<?xml version="1.0" encoding="utf-8"?>
<!-- Generator: Adobe Illustrator 16.0.4, SVG Export Plug-In . SVG Version: 6.00 Build 0)  -->
<!DOCTYPE svg PUBLIC "-//W3C//DTD SVG 1.1//EN" "http://www.w3.org/Graphics/SVG/1.1/DTD/svg11.dtd">
<svg version="1.1" id="Layer_1" xmlns="http://www.w3.org/2000/svg" xmlns:xlink="http://www.w3.org/1999/xlink" x="0px" y="0px"
	 width="725.963px" height="580.471px" viewBox="0 0 725.963 580.471" enable-background="new 0 0 725.963 580.471"
	 xml:space="preserve">
<g>
	<path opacity="0.6" fill="#F3EFEB" d="M122.776,99.868c-2.277-2.527-5.044-4.029-8.305-5.381
		c-3.262-1.352-6.937-1.591-11.026-1.591H85.891v59h17.554c4.09,0,7.764-1.149,11.026-2.5c3.26-1.352,6.027-3.527,8.305-6.056
		c2.277-2.525,4.032-5.731,5.267-9.376c1.235-3.649,1.854-7.826,1.854-12.417s-0.618-8.743-1.854-12.388
		C126.809,105.511,125.054,102.396,122.776,99.868z"/>
	<path opacity="0.6" fill="#F3EFEB" d="M114.558,449.692c0-4.243-1.399-8.304-4.196-10.581c-2.798-2.276-7.072-4.215-12.82-4.215
		h-11.65v28H97.31c2.933,0,5.488,0.324,7.669-0.405c2.179-0.736,3.973-1.403,5.382-2.692c1.409-1.295,2.459-2.658,3.154-4.432
		C114.211,453.594,114.558,451.817,114.558,449.692z"/>
	<path opacity="0.6" fill="#F3EFEB" d="M277.682,99.521c-0.561-1.678-1.11-3.502-1.651-5.47c-0.541,1.968-1.071,3.801-1.591,5.499
		c-0.52,1.7-1.032,2.768-1.534,4.039l-10.187,27.309h26.683l-10.187-27.424C278.753,102.24,278.241,101.199,277.682,99.521z"/>
	<g>
		<path opacity="0.6" fill="#F3EFEB" d="M460.534,301.624c-1.236-1.021-2.817-2.589-4.747-3.129
			c-1.929-0.541-4.264-1.599-7.004-1.599h-16.892v28h16.949c2.896,0,5.314-1.289,7.264-1.985c1.95-0.696,3.511-2.091,4.687-3.246
			c1.179-1.159,2.027-2.747,2.548-4.29c0.52-1.541,0.783-3.303,0.783-5.039c0-1.812-0.29-3.5-0.871-4.946
			C462.676,303.94,461.767,302.647,460.534,301.624z"/>
		<path opacity="0.6" fill="#F3EFEB" d="M457.524,284.41c2.739-1.934,4.108-4.798,4.108-9.004c0-4.359-1.233-8.173-3.707-10.023
			c-2.466-1.852-6.324-3.486-11.575-3.486h-14.459v25h13.594C450.77,286.896,454.784,286.336,457.524,284.41z"/>
	</g>
	<path opacity="0.6" fill="#F3EFEB" d="M715.891,19.816c0-3.822-3.098-6.92-6.92-6.92H16.811c-3.822,0-6.92,3.098-6.92,6.92v540.16
		c0,3.822,3.098,6.92,6.92,6.92h692.16c3.822,0,6.92-3.098,6.92-6.92V19.816z M594.891,78.896h55v14h-38v24h28v10h-28v25h38v10h-55
		V78.896z M594.891,251.896h55v10h-38v25h28v13h-28v21h38v14h-55V251.896z M123.356,507.896c-1.352,0-2.499-0.141-3.445-0.681
		c-0.946-0.541-1.745-1.249-2.4-2.253l-17.596-26.767c-0.657-1.004-1.38-0.976-2.17-1.401c-0.791-0.423-1.958,0.102-3.502,0.102
		h-8.351v31h-14v-83h25.65c5.71,0,10.601,0.37,14.673,1.546c4.069,1.176,7.408,2.719,10.012,4.841
		c2.605,2.121,4.514,4.606,5.73,7.556c1.215,2.953,1.823,6.175,1.823,9.726c0,2.818-0.416,5.465-1.245,7.972
		s-2.025,4.78-3.588,6.824c-1.563,2.047-3.492,3.838-5.788,5.382c-2.296,1.541-4.911,2.773-7.844,3.699
		c1.968,1.118,3.666,2.593,5.095,4.677l20.951,30.778H123.356z M137.891,334.896h-14v-35h-41v35h-14v-83h14v35h41v-35h14V334.896z
		 M142.746,138.387c-2.045,5.132-4.921,9.549-8.624,13.254c-3.705,3.705-8.161,5.862-13.371,7.906
		c-5.208,2.045-10.977,2.35-17.306,2.35H71.891v-83h31.554c6.329,0,12.097,1.404,17.306,3.469c5.209,2.064,9.666,5.124,13.371,8.809
		c3.703,3.687,6.579,8.188,8.624,13.318c2.044,5.132,3.068,10.812,3.068,16.948C145.813,127.574,144.79,133.256,142.746,138.387z
		 M307.891,438.896h-25v69h-13v-69h-28v-14h66V438.896z M310.891,301.597c0,4.977-0.373,9.578-1.975,13.806
		c-1.602,4.223-3.696,7.868-6.705,10.937c-3.01,3.067-6.549,5.46-10.833,7.179c-4.283,1.717-9.055,2.575-14.417,2.575
		c-5.364,0-10.16-0.858-14.444-2.575c-4.282-1.719-7.906-4.111-10.896-7.179c-2.992-3.068-5.508-6.714-7.108-10.937
		c-1.601-4.228-2.623-8.829-2.623-13.806v-49.7h17v49.643c0,3.203-0.055,6.096,0.814,8.68c0.868,2.588,1.87,4.795,3.49,6.629
		c1.62,1.831,3.496,3.25,5.869,4.254s5.003,1.504,8.013,1.504c3.009,0,5.671-0.5,8.043-1.504c2.374-1.004,4.363-2.412,6.005-4.227
		c1.639-1.811,3.245-4.011,4.113-6.599c0.868-2.585,1.653-5.477,1.653-8.68v-49.7h14V301.597z M304.856,161.896
		c-1.352,0-2.46,0.38-3.328-0.295c-0.868-0.674-1.497-2.071-1.882-3.075l-6.25-17.63h-34.67l-6.25,17.989
		c-0.309,0.889-0.917,1.438-1.825,2.171s-2.015,0.84-3.328,0.84h-12.096l32.875-83h15.917l32.876,83H304.856z M487.891,474.583
		c0,4.977-1.807,9.578-3.408,13.805c-1.602,4.224-4.406,7.869-7.417,10.938c-3.01,3.067-6.903,5.46-11.188,7.179
		c-4.281,1.717-9.232,2.575-14.598,2.575c-5.361,0-10.248-0.858-14.532-2.575c-4.284-1.719-7.95-4.111-10.943-7.179
		c-2.99-3.068-6.097-6.714-7.698-10.938c-1.602-4.227-3.216-8.828-3.216-13.805v-49.687h17v49.629c0,3.203,0.516,6.096,1.381,8.68
		c0.871,2.588,2.157,4.795,3.779,6.629c1.618,1.831,3.636,3.25,6.008,4.254c2.375,1.004,5.08,1.504,8.087,1.504
		c3.011,0,5.706-0.5,8.078-1.504c2.371-1.004,4.381-2.412,6.023-4.227c1.639-1.811,2.683-4.011,3.555-6.599
		c0.864-2.585,1.089-5.477,1.089-8.68v-49.687h18V474.583z M479.515,310.567c0,3.551-0.676,6.831-2.024,9.838
		c-1.351,3.011-3.32,5.605-5.902,7.784c-2.588,2.184-5.771,3.756-9.551,4.992c-3.781,1.23-8.105,1.715-12.964,1.715h-31.183v-83
		h28.459c5.48,0,10.16,0.31,14.038,1.35c3.876,1.041,7.059,2.422,9.552,4.351c2.486,1.93,4.312,4.212,5.467,6.953
		c1.158,2.74,1.736,5.798,1.736,9.234c0,1.967-0.29,3.833-0.868,5.627s-1.477,3.469-2.692,5.029
		c-1.213,1.564-2.758,2.979-4.629,4.253c-1.872,1.271-4.102,2.349-6.684,3.237C473.764,294.515,479.515,300.729,479.515,310.567z
		 M457.118,161.896h-14.064l-33.801-83h12.559c1.349,0,2.449,0.701,3.301,1.356c0.845,0.656,1.483,1.689,1.906,2.731l19.684,51.142
		c0.655,1.66,1.28,3.53,1.879,5.516c0.598,1.989,1.169,4.102,1.709,6.302c0.886-4.436,1.987-8.341,3.298-11.737l19.623-51.044
		c0.345-0.887,0.96-2.065,1.852-2.798c0.885-0.731,1.986-1.469,3.298-1.469h12.562L457.118,161.896z M647.923,492.554
		c-1.294,3.298-3.187,6.173-5.673,8.622c-2.486,2.453-5.527,4.383-9.115,5.791c-3.588,1.406-7.697,2.112-12.329,2.112
		c-2.662,0-5.287-0.261-7.872-0.78c-2.585-0.524-5.064-1.264-7.437-2.23c-2.372-0.963-4.595-2.121-6.655-3.473
		c-2.068-1.349-3.906-2.855-5.528-4.515l4.515-7.467c0.426-0.54,0.932-0.993,1.533-1.361c0.599-0.364,1.264-0.547,1.997-0.547
		c0.963,0,2.004,0.395,3.125,1.186c1.118,0.791,2.439,1.669,3.967,2.632c1.521,0.967,3.317,1.845,5.379,2.636
		c2.067,0.79,4.548,1.186,7.439,1.186c4.437,0,7.872-1.051,10.305-3.155c2.43-2.102,3.643-5.122,3.643-9.059
		c0-2.199-0.548-3.993-1.648-5.382c-1.099-1.389-2.555-2.555-4.369-3.501c-1.814-0.945-3.879-1.746-6.192-2.401
		c-2.318-0.655-4.67-1.368-7.062-2.143c-2.393-0.771-4.747-1.696-7.062-2.777c-2.318-1.081-4.379-2.489-6.193-4.227
		c-1.814-1.736-3.271-3.905-4.368-6.511c-1.102-2.604-1.649-5.817-1.649-9.636c0-3.048,0.605-6.021,1.821-8.916
		c1.213-2.893,2.99-5.46,5.325-7.696c2.334-2.237,5.199-4.031,8.595-5.383s7.274-2.027,11.633-2.027
		c4.939,0,9.494,0.774,13.66,2.314c4.166,1.545,7.717,3.707,10.652,6.484l-3.824,7.352c-0.423,0.848-0.916,1.446-1.474,1.794
		c-0.561,0.349-1.227,0.521-1.996,0.521c-0.774,0-1.643-0.297-2.605-0.898c-0.966-0.595-2.102-1.261-3.416-1.997
		c-1.311-0.729-2.845-1.396-4.602-1.997c-1.753-0.595-3.828-0.896-6.22-0.896c-2.162,0-4.044,0.261-5.643,0.781
		c-1.602,0.52-2.953,1.246-4.054,2.172c-1.102,0.926-1.92,2.034-2.46,3.328c-0.541,1.291-0.812,2.71-0.812,4.254
		c0,1.966,0.551,3.608,1.649,4.919c1.102,1.312,2.558,2.43,4.372,3.358c1.811,0.926,3.879,1.754,6.193,2.487
		c2.313,0.732,4.679,1.514,7.091,2.345c2.409,0.831,4.774,1.794,7.089,2.892c2.317,1.102,4.379,2.49,6.193,4.169
		c1.814,1.68,3.271,3.733,4.368,6.163c1.102,2.433,1.648,5.386,1.648,8.855C649.859,485.716,649.217,489.253,647.923,492.554z"/>
</g>
</svg>
